<svg width="47" height="50" viewBox="0 0 47 50" fill="none" xmlns="http://www.w3.org/2000/svg">
<path d="M46.0007 28.1908C45.8615 22.9714 45.6353 17.7519 45.2989 12.5262C43.8778 0.455874 36.0065 -0.725534 26.4009 0.280851C22.9032 0.462126 19.359 0.068326 15.8323 0.41212C12.7639 0.580891 9.49824 0.737162 6.80101 2.51867C3.87756 4.36265 2.35198 7.75684 1.76035 11.2386C1.22671 14.1577 0.774271 17.0706 0.745267 20.0585C0.513248 23.9528 0.640856 27.8533 0.954085 31.7476C1.20931 35.1418 1.51096 38.561 2.68262 41.7551C3.92971 45.0056 6.40654 47.0121 9.27778 48.2373C11.6734 49.2624 14.3416 49.7375 16.8126 49.9375C17.4565 50.2125 17.2535 49.3312 17.3057 48.9186C17.5493 44.5305 17.7581 40.1487 17.9032 35.7543C17.8741 35.7543 17.8509 35.7543 17.8219 35.7543C17.6711 34.773 18.1816 31.3787 17.4739 30.9975C16.134 30.9537 13.4599 31.635 13.3556 29.5285C13.576 27.5845 12.3753 22.0087 15.1073 22.015C15.67 21.8775 17.5203 22.1525 17.6943 21.6087C17.9263 19.0959 18.1061 16.5456 19.1967 14.2577C20.4612 11.1135 23.6862 9.83215 26.6793 9.78214C28.2802 9.94462 32.9786 9.30079 32.7524 11.9511C32.445 13.6201 33.0366 18.4583 31.0122 18.6771C29.0169 18.9208 26.0355 19.2959 27.0621 22.2775C27.1897 23.1651 30.9252 22.5776 31.8243 22.8339C34.1039 22.9776 32.8974 26.0218 32.8684 27.5782C32.5726 28.6284 32.7002 30.4662 31.4125 30.6786C30.554 30.8849 26.4937 30.6286 26.3429 31.3225C26.1862 37.4483 26.0702 43.5742 25.9484 49.6999C25.989 50.2813 27.0447 49.7625 27.4334 49.8437C27.9728 49.7937 28.5064 49.8937 29.0575 49.7437C31.2559 49.5312 33.5471 49.4749 35.7223 49.1186C38.9763 48.5811 41.9636 47.3621 43.9357 43.8992C46.5344 39.2173 46.2153 33.4415 46.0007 28.1908Z" fill="#262E2B"/>
<mask id="mask0_22_113" style="mask-type:alpha" maskUnits="userSpaceOnUse" x="13" y="9" width="21" height="41">
<path d="M27.4393 49.8313C27.0507 49.7562 25.995 50.2688 25.9544 49.6874C26.082 43.5617 26.1922 37.4358 26.3489 31.31C26.4996 30.6099 30.56 30.8662 31.4184 30.6662C32.7004 30.4537 32.5785 28.6159 32.8744 27.5658C32.9034 26.003 34.1099 22.9651 31.8303 22.8214C30.9312 22.5651 27.1957 23.1527 27.0681 22.2651C26.0414 19.2834 29.0229 18.9084 31.0182 18.6646C33.0426 18.4458 32.4451 13.6077 32.7584 11.9387C32.9846 9.28831 28.2862 9.93839 26.6852 9.76966C23.6922 9.81967 20.4671 11.1011 19.2026 14.2452C18.1063 16.5331 17.9323 19.0834 17.7003 21.5962C17.5263 22.1338 15.6759 21.8587 15.1133 22.0025C12.387 21.9963 13.5819 27.572 13.3615 29.516C13.4659 31.6225 16.1458 30.9412 17.4799 30.985C18.1875 31.3663 17.6771 34.7667 17.8279 35.7419C17.8569 35.7419 17.8801 35.7419 17.9091 35.7419C17.7583 40.1299 17.5553 44.5181 17.3117 48.9061C17.2536 49.3124 17.4625 50.2 16.8186 49.925C14.3476 49.725 19.6493 49.1874 17.2536 48.1623V49.9375L26.0298 50V49.0999C23.8546 49.4562 31.2619 49.5125 29.0635 49.725C28.5124 49.8813 27.973 49.7813 27.4393 49.8313Z" fill="white"/>
</mask>
<g mask="url(#mask0_22_113)">
</g>
</svg>
