<svg width="159" height="47" viewBox="0 0 159 47" fill="none" xmlns="http://www.w3.org/2000/svg">
<path d="M4.104 39.44C3.984 39.44 3.888 39.404 3.816 39.332C3.768 39.236 3.78 39.116 3.852 38.972L7.668 31.196L0.036 16.328C-0.012 16.184 -0.012 16.076 0.036 16.004C0.108 15.908 0.204 15.86 0.324 15.86H3.348C3.588 15.86 3.744 15.944 3.816 16.112L7.776 24.248C8.064 24.848 8.352 25.436 8.64 26.012C8.928 26.564 9.192 27.152 9.432 27.776H9.504C9.768 27.152 10.032 26.552 10.296 25.976C10.584 25.4 10.872 24.824 11.16 24.248L15.156 16.112C15.252 15.944 15.408 15.86 15.624 15.86H18.54C18.684 15.86 18.78 15.908 18.828 16.004C18.876 16.076 18.876 16.184 18.828 16.328L7.236 39.188C7.164 39.356 7.02 39.44 6.804 39.44H4.104Z" fill="white"/>
<path d="M28.3447 39.44C28.0847 39.44 27.9548 39.297 27.9548 39.011V14.324C27.9548 14.038 28.0847 13.895 28.3447 13.895H41.7998C42.0598 13.895 42.1898 14.038 42.1898 14.324V16.82C42.1898 17.106 42.0598 17.249 41.7998 17.249H31.6598V39.011C31.6598 39.297 31.5297 39.44 31.2697 39.44H28.3447Z" fill="white"/>
<path d="M62.8736 39.944C59.3176 39.944 56.6576 39.076 54.8936 37.34C53.1576 35.604 52.2896 33.14 52.2896 29.948V21.422C52.2896 18.202 53.1576 15.738 54.8936 14.03C56.6576 12.294 59.3176 11.426 62.8736 11.426C66.4296 11.426 69.0896 12.294 70.8536 14.03C72.6176 15.738 73.4996 18.202 73.4996 21.422V29.948C73.4996 33.14 72.6176 35.604 70.8536 37.34C69.0896 39.076 66.4296 39.944 62.8736 39.944ZM62.8736 36.416C65.0576 36.416 66.7096 35.856 67.8296 34.736C68.9496 33.616 69.5096 31.978 69.5096 29.822V21.548C69.5096 19.364 68.9496 17.726 67.8296 16.634C66.7096 15.514 65.0576 14.954 62.8736 14.954C60.7456 14.954 59.1076 15.514 57.9596 16.634C56.8396 17.726 56.2796 19.364 56.2796 21.548V29.822C56.2796 31.978 56.8396 33.616 57.9596 34.736C59.1076 35.856 60.7456 36.416 62.8736 36.416Z" fill="white"/>
<path d="M87.0699 39.44C86.7699 39.44 86.6199 39.275 86.6199 38.945V10.46C86.6199 10.13 86.7699 9.965 87.0699 9.965H94.8549C98.5449 9.965 101.305 10.76 103.135 12.35C104.995 13.91 105.925 16.22 105.925 19.28C105.925 22.31 104.995 24.62 103.135 26.21C101.275 27.77 98.5149 28.55 94.8549 28.55H90.8949V38.945C90.8949 39.275 90.7449 39.44 90.4449 39.44H87.0699ZM90.8949 24.905H94.7649C97.1349 24.905 98.8599 24.47 99.9399 23.6C101.05 22.7 101.605 21.305 101.605 19.415C101.605 17.375 101.035 15.905 99.8949 15.005C98.7849 14.075 97.0449 13.61 94.6749 13.61H90.8949V24.905Z" fill="white"/>
<path d="M121.13 39.44C120.97 39.44 120.842 39.392 120.746 39.296C120.682 39.168 120.698 39.008 120.794 38.816L125.882 28.448L115.706 8.624C115.642 8.432 115.642 8.288 115.706 8.192C115.802 8.064 115.93 8 116.09 8H120.122C120.442 8 120.65 8.112 120.746 8.336L126.026 19.184C126.41 19.984 126.794 20.768 127.178 21.536C127.562 22.272 127.914 23.056 128.234 23.888H128.33C128.682 23.056 129.034 22.256 129.386 21.488C129.77 20.72 130.154 19.952 130.538 19.184L135.866 8.336C135.994 8.112 136.202 8 136.49 8H140.378C140.57 8 140.698 8.064 140.762 8.192C140.826 8.288 140.826 8.432 140.762 8.624L125.306 39.104C125.21 39.328 125.018 39.44 124.73 39.44H121.13Z" fill="white"/>
<path fill-rule="evenodd" clip-rule="evenodd" d="M121.066 1.14236C119.546 3.04586 97.2976 42.4247 96.9741 43.7831C96.2027 47.0209 96.0034 47 127.695 47C158.2 47 158.669 46.9608 158.669 44.4104C158.669 43.1395 139.57 10.4209 138.325 9.55863C137.826 9.21331 137.012 9.10298 136.513 9.31253C135.377 9.79167 124.172 29.3913 124.172 30.9012C124.172 32.4855 126.84 33.7303 127.99 32.6833C128.473 32.2427 130.686 28.6733 132.908 24.7514C135.129 20.8288 137.149 17.6948 137.397 17.7856C137.644 17.877 140.939 23.2389 144.717 29.7014L151.587 41.4514L127.973 41.6224C114.987 41.7158 104.26 41.6825 104.137 41.5473C103.831 41.2118 122.294 8.86081 122.928 8.62124C123.206 8.51614 124.147 9.76425 125.018 11.3955C126.327 13.8474 126.904 14.3611 128.349 14.3611C131.313 14.3611 131.304 11.9439 128.32 6.70468C125.158 1.1515 124.241 0 122.983 0C122.43 0 121.567 0.514389 121.066 1.14236Z" fill="white"/>
</svg>
