<svg width="47" height="50" viewBox="0 0 47 50" fill="none" xmlns="http://www.w3.org/2000/svg">
<path d="M30.4604 15.411C32.6984 15.2922 33.0427 19.2862 30.5866 18.9362C28.5495 18.8737 28.2913 15.4735 30.4604 15.411Z" fill="#262E2B"/>
<path d="M37.7942 24.9239C37.972 10.6294 32.7156 8.77935 20.7279 9.57314C12.4703 8.87936 9.22806 15.6922 9.20514 23.7489C8.75755 31.6368 10.9898 41.606 20.0049 40.7685C31.258 40.5497 38.3164 39.3059 37.7942 24.9239ZM18.117 0.322692C31.0056 -0.983623 45.9255 1.02898 46.1034 18.5986C46.5568 26.6865 46.7978 35.3557 43.1596 42.6936C39.2861 49.8689 32.8304 49.5689 26.1164 49.7377C20.2115 49.9939 14.123 50.5502 8.43045 48.4439C2.62886 46.2563 1.05077 41.4873 1.17702 35.2494C0.976178 29.8804 0.775327 24.5239 0.861408 19.1486C1.14833 6.41047 6.25556 0.0289292 18.117 0.322692Z" fill="#262E2B"/>
<path d="M24.4811 19.5674C18.6393 19.2424 16.8375 29.7242 23.2473 30.0055C29.2727 29.8492 30.1966 21.4363 24.4811 19.5674ZM23.2588 17.161C33.347 16.4173 32.7273 32.6556 23.2129 32.5431C14.1978 32.2431 15.0414 18.0361 23.2588 17.161Z" fill="#262E2B"/>
</svg>
