<svg width="47" height="50" viewBox="0 0 47 50" fill="none" xmlns="http://www.w3.org/2000/svg">
<path d="M17.1067 0.224502C26.4341 0.262 39.1578 -2.21307 44.5371 8.41222C46.4852 12.4811 46.1059 17.2063 46.3071 21.6502C46.4278 25.6065 46.5083 29.5629 46.2726 33.5068C44.6347 48.201 37.6924 50.1323 25.4744 49.9823C20.3825 50.1198 15.262 49.4573 10.3483 48.0134C4.86571 46.8072 1.52674 41.157 1.26813 35.3318C0.877336 25.8753 -0.0824096 13.5437 4.4979 5.17465C7.3599 0.843268 12.6586 0.730768 17.1067 0.224502ZM39.7555 23.8314C40.5084 8.69978 27.095 11.8061 17.5838 12.0248C9.0438 12.2749 9.37708 20.0813 9.61846 27.1941C9.03804 36.7944 15.8424 36.6819 22.6296 36.5694C31.8707 36.6194 40.7958 37.3131 39.7555 23.8314Z" fill="#262E2B"/>
<mask id="mask0_22_115" style="mask-type:alpha" maskUnits="userSpaceOnUse" x="9" y="11" width="31" height="26">
<path d="M22.4113 20.5751C20.7389 20.0688 21.124 23.3814 21.0321 24.4877C21.2849 25.3439 20.7504 29.5066 22.0895 28.8378C24.1463 27.8058 25.881 26.3067 27.6723 24.7927C28.0686 24.4578 28.0213 23.7836 27.5925 23.5001C25.8982 22.3798 24.3511 21.0998 22.4113 20.5751ZM17.5838 12.0248C27.0893 11.8061 40.5085 8.69971 39.7499 23.8314C40.7901 37.3131 31.8708 36.613 22.6297 36.5693C15.8425 36.6818 9.03235 36.7881 9.61853 27.194C9.3772 20.0813 9.04962 12.2748 17.5838 12.0248Z" fill="white"/>
</mask>
<g mask="url(#mask0_22_115)">
</g>
<path d="M21.0318 24.4878C21.1238 23.3816 20.7387 20.0627 22.4111 20.5752C24.351 21.1 25.8941 22.3801 27.5907 23.5004C28.0199 23.7838 28.0676 24.4587 27.6711 24.7938C25.8801 26.3074 24.1457 27.8061 22.0892 28.838C20.7502 29.5068 21.2847 25.3441 21.0318 24.4878Z" fill="#262E2B"/>
</svg>
